# xmcd
#
# Track frame offsets: 
#        182
#        70662
#        127877
#        186662
#        190642
#        198355
#        202267
#        207840
#        225692
#        234177
#        249807
#        262717
#
# Disc length: 3620 seconds
#
# Revision: 13
# Processed by: cddbd v1.5.2PL0 Copyright (c) Steve Scherf et al.
# Submitted via: ExactAudioCopy v1.3
#
DISCID=9f0e220c
DTITLE=Various Artist - Dvořák Cellokonzert – Tschaikowsky Rokoko-Var
DTITLE=iationen (Rostropovitch, Karajan)
DYEAR=1969
DGENRE=Classical
TTITLE0=Mstislav Rostropovich - Berliner Philharmoniker - Herbert Von 
TTITLE0=Karajan - Antonín Dvořák – Konzert Für Violoncelle Und Orchest
TTITLE0=er H-Moll, Op.104 – I. Allegro
TTITLE1=Mstislav Rostropovich - Berliner Philharmoniker - Herbert Von 
TTITLE1=Karajan - Antonín Dvořák – Konzert Für Violoncelle Und Orchest
TTITLE1=er H-Moll, Op.104 – II. Adagio Ma Non Troppo
TTITLE2=Mstislav Rostropovich - Berliner Philharmoniker - Herbert Von 
TTITLE2=Karajan - Antonín Dvořák – Konzert Für Violoncelle Und Orchest
TTITLE2=er H-Moll, Op.104 – III. Finale. Allegro Moderato
TTITLE3=Mstislav Rostropovich - Berliner Philharmoniker - Herbert Von 
TTITLE3=Karajan - Pyotr Ilyich Tschaikowsky – Variationen Über Ein Rok
TTITLE3=oko-Thema Für Violoncello Und Orchester Op.33 – I. Moderato Qu
TTITLE3=asi Andante
TTITLE4=Mstislav Rostropovich - Berliner Philharmoniker - Herbert Von 
TTITLE4=Karajan - Pyotr Ilyich Tschaikowsky – Variationen Über Ein Rok
TTITLE4=oko-Thema Für Violoncello Und Orchester Op.33 – II. Tema. Mode
TTITLE4=rato Semplice
TTITLE5=Mstislav Rostropovich - Berliner Philharmoniker - Herbert Von 
TTITLE5=Karajan - Pyotr Ilyich Tschaikowsky – Variationen Über Ein Rok
TTITLE5=oko-Thema Für Violoncello Und Orchester Op.33 – Variazione I. 
TTITLE5=Tempo Del Tema
TTITLE6=Mstislav Rostropovich - Berliner Philharmoniker - Herbert Von 
TTITLE6=Karajan - Pyotr Ilyich Tschaikowsky – Variationen Über Ein Rok
TTITLE6=oko-Thema Für Violoncello Und Orchester Op.33 – Variazione II.
TTITLE6=Tempo Del Tema
TTITLE7=Mstislav Rostropovich - Berliner Philharmoniker - Herbert Von 
TTITLE7=Karajan - Pyotr Ilyich Tschaikowsky – Variationen Über Ein Rok
TTITLE7=oko-Thema Für Violoncello Und Orchester Op.33 – Variazione III
TTITLE7=Andante Sostenuto
TTITLE8=Mstislav Rostropovich - Berliner Philharmoniker - Herbert Von 
TTITLE8=Karajan - Pyotr Ilyich Tschaikowsky – Variationen Über Ein Rok
TTITLE8=oko-Thema Für Violoncello Und Orchester Op.33 – Variazione IV.
TTITLE8=Andante Grazioso
TTITLE9=Mstislav Rostropovich - Berliner Philharmoniker - Herbert Von 
TTITLE9=Karajan - Pyotr Ilyich Tschaikowsky – Variationen Über Ein Rok
TTITLE9=oko-Thema Für Violoncello Und Orchester Op.33 – Variazione V. 
TTITLE9=Allegro Moderato
TTITLE10=Mstislav Rostropovich - Berliner Philharmoniker - Herbert Von
TTITLE10=Karajan - Pyotr Ilyich Tschaikowsky – Variationen Über Ein R
TTITLE10=okoko-Thema Für Violoncello Und Orchester Op.33 – Variazione 
TTITLE10=VI. Andante
TTITLE11=Mstislav Rostropovich - Berliner Philharmoniker - Herbert Von
TTITLE11=Karajan - Pyotr Ilyich Tschaikowsky – Variationen Über Ein R
TTITLE11=okoko-Thema Für Violoncello Und Orchester Op.33 – Variazione 
TTITLE11=VII. Allegro Vivo
EXTD=Antonin Dvorak (1841-1904]\nConcerto for Cello and Orchestra\nin 
EXTD=B minor opus 104\n\nPeter Tschaikowsky (1840-1893]\nVariations on
EXTD=a Rococo Theme\nfor Cello and Orchestra, opus 33\n\n YEAR: 1969
EXTT0=
EXTT1=
EXTT2=
EXTT3=
EXTT4=
EXTT5=
EXTT6=
EXTT7=
EXTT8=
EXTT9=
EXTT10=
EXTT11=
PLAYORDER=
